<svg width="60" height="60" fill="none" xmlns="http://www.w3.org/2000/svg"><rect y="60" width="60" height="60" rx="14" transform="rotate(-90 0 60)" fill="#FD4A2B"/><path d="M37.952 23.88c.349 0 .635.285.635.634V35.37c0 .35-.286.635-.635.635h-.508a.127.127 0 0 1-.127-.127V24.006c0-.07.057-.127.127-.127h.508Zm0-2.54h-2.92a.255.255 0 0 0-.255.254V38.29c0 .14.115.254.254.254h2.92a3.175 3.175 0 0 0 3.175-3.175V24.514a3.175 3.175 0 0 0-3.174-3.174ZM45.885 25.467c.35 0 .635.286.635.635v7.936c0 .349-.286.635-.635.635h-.508a.127.127 0 0 1-.127-.127v-8.952c0-.07.057-.127.127-.127h.508Zm0-2.54h-2.92a.255.255 0 0 0-.254.255v13.776c0 .14.114.254.254.254h2.92a3.175 3.175 0 0 0 3.175-3.174v-7.936a3.175 3.175 0 0 0-3.175-3.174ZM56.743 19.906h-2.031a.257.257 0 0 0-.254.258v9.522a.65.65 0 0 1-.613.662.639.639 0 0 1-.657-.645V20.164a.257.257 0 0 0-.254-.258h-2.032a.257.257 0 0 0-.254.258v9.5c0 1.329.781 2.486 1.905 2.993v7.307c0 .142.114.258.254.258h2.032c.14 0 .254-.116.254-.258v-7.3a3.229 3.229 0 0 0 1.904-2.958v-9.542a.257.257 0 0 0-.254-.258ZM29.973 18c-1.749.013-3.149 1.463-3.149 3.216V41.87c0 .14.114.254.254.254h2.032c.14 0 .254-.114.254-.254V31.608h1.27v10.263c0 .14.114.254.253.254h2.032c.14 0 .254-.114.254-.254V21.174a3.177 3.177 0 0 0-3.2-3.174ZM29.36 29.07V21.19c0-.343.267-.638.61-.65a.637.637 0 0 1 .66.634v7.895h-1.27ZM22.97 21.332a.255.255 0 0 0-.255.254v14.078a.646.646 0 0 1-.609.65.637.637 0 0 1-.66-.634V21.586a.255.255 0 0 0-.254-.254H19.16a.255.255 0 0 0-.254.254v14.053c0 1.749 1.4 3.2 3.15 3.215a3.175 3.175 0 0 0 3.199-3.174V21.586a.255.255 0 0 0-.254-.254h-2.032ZM5.54 23.1c0-.343.266-.638.609-.651a.637.637 0 0 1 .66.635v4.825c0 .14.114.254.254.254h2.032c.14 0 .254-.115.254-.254v-4.787c0-1.75-1.4-3.2-3.15-3.216A3.175 3.175 0 0 0 3 23.081v5.079h.003c0 .152.029 1.403.933 2.307.394.397 1.102.867 2.238.867.388 0 .464.13.515.216.092.158.117.362.12.435v5.047a.646.646 0 0 1-.61.65.637.637 0 0 1-.66-.634v-4.825a.255.255 0 0 0-.253-.254H3.254a.255.255 0 0 0-.254.254v4.783c0 1.75 1.4 3.2 3.149 3.216a3.175 3.175 0 0 0 3.2-3.174v-5.08c0-.13-.02-.812-.372-1.52a2.93 2.93 0 0 0-.997-1.143c-.507-.34-1.117-.51-1.806-.51-.387 0-.46-.13-.51-.216a1.11 1.11 0 0 1-.121-.439m1.266 3.832v.013c-.003-.01 0-.013 0-.013ZM14.14 25.143c.348 0 .634.286.634.635v8.57c0 .35-.286.635-.635.635a.637.637 0 0 1-.635-.634v-8.571c0-.352.283-.635.635-.635Zm0-2.54a3.175 3.175 0 0 0-3.175 3.175v8.57a3.175 3.175 0 0 0 6.349 0v-8.57a3.173 3.173 0 0 0-3.175-3.174Z" fill="#FDFDFD"/><path d="m18.128 37.781-.988.987a.255.255 0 0 1-.358 0l-2.42-2.419a.255.255 0 0 1 0-.358l.988-.987a.255.255 0 0 1 .359 0l2.419 2.418a.25.25 0 0 1 0 .359Z" fill="#FDFDFD"/></svg>