<svg width="260" height="260" viewBox="0 0 260 260" fill="none" xmlns="http://www.w3.org/2000/svg">
<rect width="260" height="260" fill="#FD4A2B"/>
<path d="M123 53.2109C123 49.4309 125.94 46.1759 129.72 46.0359C133.71 45.8959 137 49.0809 137 53.0359V106.236C137 107.776 138.26 109.036 139.8 109.036H162.2C163.74 109.036 165 107.776 165 106.236V53.4559C165 34.1709 149.565 18.1759 130.28 18.0009C110.82 17.8609 95 33.5759 95 53.0009V109.001H95.035C95.035 110.681 95.35 124.471 105.325 134.446C109.665 138.821 117.47 144.001 130 144.001C134.27 144.001 135.11 145.436 135.67 146.381C136.685 148.131 136.965 150.371 137 151.176V206.826C137 210.606 134.06 213.861 130.28 214.001C126.29 214.141 123 210.956 123 207.001V153.801C123 152.261 121.74 151.001 120.2 151.001H97.8C96.26 151.001 95 152.261 95 153.801V206.546C95 225.831 110.435 241.826 129.72 242.001C149.18 242.141 165 226.426 165 207.001V151.001C165 149.566 164.79 142.041 160.905 134.236C158.28 128.986 154.57 124.751 149.915 121.636C144.315 117.891 137.595 116.001 130 116.001C125.73 116.001 124.925 114.566 124.365 113.621C123.35 111.836 123.07 109.526 123.035 108.791M137 151.036V151.176C136.965 151.071 137 151.036 137 151.036Z" fill="#FDFDFD"/>
</svg>