<svg width="1702" height="761" fill="none" xmlns="http://www.w3.org/2000/svg"><path d="M1101.8 186.1c11 0 20 9 20 20v342c0 11-9 20-20 20h-16c-2.2 0-4-1.8-4-4v-374c0-2.2 1.8-4 4-4h16Zm0-80h-92c-4.4 0-8 3.6-8 8v526c0 4.4 3.6 8 8 8h92c55.2 0 100-44.8 100-100v-342c0-55.2-44.8-100-100-100ZM1351.8 236.1c11 0 20 9 20 20v250c0 11-9 20-20 20h-16c-2.2 0-4-1.8-4-4v-282c0-2.2 1.8-4 4-4h16Zm0-80h-92c-4.4 0-8 3.6-8 8v434c0 4.4 3.6 8 8 8h92c55.2 0 100-44.8 100-100v-250c0-55.2-44.8-100-100-100ZM1694 61h-64c-4.4 0-8 3.657-8 8.127V369.114c0 11.073-8.4 20.419-19.3 20.826-11.4.406-20.7-8.838-20.7-20.318V69.127c0-4.47-3.6-8.127-8-8.127h-64c-4.4 0-8 3.657-8 8.127v299.276c0 41.854 24.6 78.324 60 94.273v230.197c0 4.47 3.6 8.127 8 8.127h64c4.4 0 8-3.657 8-8.127V462.879c35.3-15.644 60-51.504 60-93.155V69.127c0-4.47-3.6-8.127-8-8.127ZM850.5.9c-55.1.4-99.2 46.1-99.2 101.3v650.7c0 4.4 3.6 8 8 8h64c4.4 0 8-3.6 8-8V429.6h40v323.3c0 4.4 3.6 8 8 8h64c4.4 0 8-3.6 8-8v-652C951.2 45.4 906.1.5 850.5.9Zm-19.3 348.7V101.4c0-10.8 8.4-20.1 19.2-20.5 11.4-.4 20.8 8.7 20.8 20v248.7h-40ZM629.8 105.9c-4.4 0-8 3.6-8 8v443.5c0 10.8-8.4 20.1-19.2 20.5-11.4.4-20.8-8.7-20.8-20v-444c0-4.4-3.6-8-8-8h-64c-4.4 0-8 3.6-8 8v442.7c0 55.1 44.1 100.8 99.2 101.3 55.6.4 100.8-44.5 100.8-100v-444c0-4.4-3.6-8-8-8h-64ZM80.8 161.603c0-10.8 8.4-20.1 19.2-20.5 11.4-.4 20.8 8.7 20.8 20v152c0 4.4 3.6 8 8 8h64c4.4 0 8-3.6 8-8v-150.8c0-55.1-44.1-100.8-99.2-101.3-55.6-.4-100.8 44.5-100.8 100v160h.1c0 4.8.9 44.2 29.4 72.7 12.4 12.5 34.7 27.3 70.5 27.3 12.2 0 14.6 4.1 16.2 6.8 2.9 5 3.7 11.4 3.8 13.7v159c0 10.8-8.4 20.1-19.2 20.5-11.4.4-20.8-8.7-20.8-20v-152c0-4.4-3.6-8-8-8h-64c-4.4 0-8 3.6-8 8v150.7c0 55.1 44.1 100.8 99.2 101.3 55.6.4 100.8-44.5 100.8-100v-160c0-4.1-.6-25.6-11.7-47.9-7.5-15-18.1-27.1-31.4-36-16-10.7-35.2-16.1-56.9-16.1-12.2 0-14.5-4.1-16.1-6.8-2.9-5.1-3.7-11.7-3.8-13.8m39.9 120.7v.4c-.1-.3 0-.4 0-.4ZM351.8 225.9c11 0 20 9 20 20v270c0 11-9 20-20 20s-20-9-20-20v-270c0-11.1 8.9-20 20-20Zm0-80c-55.2 0-100 44.8-100 100v270c0 55.2 44.8 100 100 100s100-44.8 100-100v-270c0-55.3-44.8-100-100-100Z" fill="#000"/><path d="m477.4 624.1-31.1 31.1c-3.1 3.1-8.2 3.1-11.3 0L358.8 579c-3.1-3.1-3.1-8.2 0-11.3l31.1-31.1c3.1-3.1 8.2-3.1 11.3 0l76.2 76.2c3.2 3.1 3.2 8.2 0 11.3Z" fill="#000"/></svg>